<svg xmlns="http://www.w3.org/2000/svg" width="387" height="424" fill="none"><g fill="#00004C" filter="url(#a)"><path d="M88.5 192H4V42C4 11.2 28.667 1.5 41 .5h341.5l-47.5 85H111c-16 0-21.667 14.333-22.5 21.5v85Z"/><path d="M88.5 192H4V42C4 11.2 28.667 1.5 41 .5h341.5l-47.5 85H111c-16 0-21.667 14.333-22.5 21.5v85Z"/><path d="M88.5 192H4V42C4 11.2 28.667 1.5 41 .5h341.5l-47.5 85H111c-16 0-21.667 14.333-22.5 21.5v85Z"/></g><g fill="#52A567" filter="url(#b)"><path d="M88.5 224.5H4v150C4 405.3 28.667 415 41 416h341.5L335 331H111c-16 0-21.667-14.333-22.5-21.5v-85Z"/><path d="M88.5 224.5H4v150C4 405.3 28.667 415 41 416h341.5L335 331H111c-16 0-21.667-14.333-22.5-21.5v-85Z"/><path d="M88.5 224.5H4v150C4 405.3 28.667 415 41 416h341.5L335 331H111c-16 0-21.667-14.333-22.5-21.5v-85Z"/></g><defs><filter id="a" width="386.5" height="199.5" x="0" y=".5" color-interpolation-filters="sRGB" filterUnits="userSpaceOnUse"><feFlood flood-opacity="0" result="BackgroundImageFix"/><feColorMatrix in="SourceAlpha" result="hardAlpha" values="0 0 0 0 0 0 0 0 0 0 0 0 0 0 0 0 0 0 127 0"/><feOffset dy="4"/><feGaussianBlur stdDeviation="2"/><feComposite in2="hardAlpha" operator="out"/><feColorMatrix values="0 0 0 0 0 0 0 0 0 0 0 0 0 0 0 0 0 0 0.25 0"/><feBlend in2="BackgroundImageFix" result="effect1_dropShadow_11_25"/><feBlend in="SourceGraphic" in2="effect1_dropShadow_11_25" result="shape"/></filter><filter id="b" width="386.5" height="199.5" x="0" y="224.5" color-interpolation-filters="sRGB" filterUnits="userSpaceOnUse"><feFlood flood-opacity="0" result="BackgroundImageFix"/><feColorMatrix in="SourceAlpha" result="hardAlpha" values="0 0 0 0 0 0 0 0 0 0 0 0 0 0 0 0 0 0 127 0"/><feOffset dy="4"/><feGaussianBlur stdDeviation="2"/><feComposite in2="hardAlpha" operator="out"/><feColorMatrix values="0 0 0 0 0 0 0 0 0 0 0 0 0 0 0 0 0 0 0.25 0"/><feBlend in2="BackgroundImageFix" result="effect1_dropShadow_11_25"/><feBlend in="SourceGraphic" in2="effect1_dropShadow_11_25" result="shape"/></filter></defs><style>@media (prefers-color-scheme:dark){:root{filter:invert(100%)}}</style></svg>