<svg xmlns="http://www.w3.org/2000/svg" width="1453" height="445" fill="none"><path fill="#F8AF3E" stroke="#fff" stroke-width="6" d="m775.747 257.367-83.036 137.075 198.488-149.295-52.413-5.649 110.538-137.064-75.07 7.611 46.691-65.834-94.587 14.666-78.406 111.167 46.682 2.128-69.014 90.854 50.127-5.659Z"/><path fill="#00004C" d="m761.998 421.375 5.865-.029c3.981-.021 7.218-1.538 9.711-4.551l-5.18-13.832c-4.24.199-7.828 2.512-10.763 6.94l-3.345 5.048c-2.857 4.31-1.619 6.452 3.712 6.424Zm.817 7.587-7.357.038c-5.19.026-8.459-1.134-9.809-3.481-1.349-2.347-.595-5.676 2.261-9.986l4.05-6.111c1.957-2.952 4.602-5.554 7.938-7.807 3.335-2.253 6.858-3.507 10.569-3.761-.841-3.115-.009-6.561 2.495-10.34l1.233-1.86c2.817-4.251 6.537-7.565 11.159-9.942 4.732-2.437 9.729-3.669 14.989-3.695l3.199-.017c5.19-.026 8.459 1.134 9.809 3.481 1.349 2.347.595 5.676-2.261 9.986l-2.289 3.454c-.705 1.062-1.661 1.597-2.869 1.603l-6.718.034c-1.209.006-1.461-.522-.757-1.585l2.172-3.277c2.818-4.251 1.845-6.364-2.918-6.34l-1.28.007c-4.976.025-8.873 2.163-11.69 6.414l-1.233 1.86c-1.761 2.657-2.036 5.424-.825 8.301l2.071 5.374 24.419-.124c1.208-.007 1.46.522.756 1.585l-2.994 4.516c-.665 1.004-1.602 1.509-2.81 1.515l-16.741.085 6.643 18.679c.128.234.023.5-.315.796-.266.295-.613.444-1.04.446l-8.53.044c-1.422.007-2.218-.342-2.388-1.047l-1.821-5.11c-4.374 4.141-10.08 6.229-17.118 6.265ZM836.827 430.29l-6.667.034c-1.199.006-1.469-.495-.808-1.503l35.471-54.17c.661-1.008 1.59-1.515 2.79-1.521l25.184-.13c5.15-.026 8.374 1.169 9.675 3.585 1.339 2.357.572 5.73-2.302 10.118l-6.057 9.251c-2.835 4.329-6.495 7.716-10.979 10.162-4.484 2.446-9.301 3.683-14.451 3.709l-15.449.08c-.847.004-1.464.303-1.853.896l-11.765 17.967c-.66 1.008-1.59 1.516-2.789 1.522Zm21.31-28.034 14.074-.073c5.008-.026 8.949-2.233 11.823-6.621l5.533-8.45c2.874-4.388 1.806-6.569-3.203-6.543l-14.073.072c-.776.004-1.358.303-1.747.896l-12.988 19.835c-.389.593-.195.888.581.884ZM891.673 430.007l-6.666.035c-1.199.006-1.469-.495-.809-1.503l27.725-42.34c.661-1.008 1.59-1.515 2.789-1.521l6.667-.034c1.199-.007 1.469.494.809 1.502l-2.214 3.381.424-.003c1.676-1.486 3.793-2.679 6.35-3.578 2.629-.9 5.177-1.357 7.646-1.369l3.915-.021c1.2-.006 1.469.495.809 1.503l-3.029 4.626c-.737 1.126-1.648 1.604-2.73 1.432l-6.349.033c-5.856.03-10.55 2.743-14.084 8.139l-18.464 28.197c-.66 1.008-1.589 1.515-2.789 1.521ZM943.308 429.742l-9.312.048c-5.221.026-8.481-1.168-9.781-3.585-1.23-2.416-.427-5.789 2.407-10.118l11.65-17.79c2.873-4.388 6.497-7.775 10.872-10.162 4.485-2.446 9.337-3.682 14.557-3.709l9.312-.048c5.15-.027 8.375 1.168 9.675 3.585 1.41 2.356.678 5.729-2.196 10.117l-11.649 17.79c-2.835 4.328-6.529 7.716-11.084 10.163-4.485 2.446-9.302 3.682-14.451 3.709Zm-2.88-7.521 6.455-.033c5.079-.026 9.036-2.204 11.871-6.532l11.299-17.256c2.835-4.329 1.713-6.481-3.366-6.454l-6.455.033c-2.681.014-4.97.557-6.869 1.631-1.859 1.014-3.526 2.648-5.002 4.901l-11.3 17.256c-1.475 2.254-1.963 3.911-1.463 4.972.539 1.002 2.149 1.496 4.83 1.482ZM968.887 443.971l-5.608.029c-1.2.006-1.469-.495-.809-1.503l2.971-4.536c.698-1.068 1.648-1.604 2.847-1.611l2.434-.012c4.303-.022 7.732-.749 10.286-2.181 2.625-1.432 5.57-3.781 8.834-7.048l-4.232.021c-1.059.006-1.469-.494-1.232-1.5l12.079-39.866c.377-1.006 1.166-1.513 2.365-1.519l7.088-.037c1.13-.005 1.51.495 1.13 1.502l-11.3 34.808.423-.002 34.367-34.927c.87-1.009 1.91-1.517 3.11-1.523l6.77-.035c1.34-.007 1.55.524.64 1.592l-42.51 42.859c-4.885 4.99-9.663 8.797-14.334 11.421-4.71 2.684-9.817 4.04-15.319 4.068ZM1059.57 429.143l-22.86.118c-5.22.027-8.48-1.168-9.78-3.584-1.23-2.417-.43-5.79 2.41-10.119l11.65-17.789c2.87-4.389 6.5-7.776 10.87-10.162 4.48-2.447 9.34-3.683 14.56-3.71l8.67-.045c5.22-.026 8.48 1.168 9.79 3.585 1.33 2.357.57 5.729-2.31 10.117l-7.39 11.297c-.7 1.067-1.69 1.604-2.96 1.611l-28.36.146c-.77.004-1.35.302-1.74.895l-2.51 3.825c-2.83 4.329-1.67 6.48 3.48 6.454l21.37-.11c1.27-.007 1.56.523.86 1.591l-2.92 4.447c-.62.949-1.56 1.427-2.83 1.433Zm-11.74-24.584 18.94-.097c.7-.004 1.25-.302 1.64-.895l3.72-5.693c1.48-2.253 1.95-3.881 1.41-4.883-.5-1.061-2.09-1.585-4.77-1.571l-5.82.03c-2.68.014-4.97.558-6.87 1.631-1.86 1.014-3.53 2.648-5 4.902l-3.73 5.692c-.39.593-.23.888.48.884ZM1110.32 422.854l-3.03 4.625c-.62.949-1.57 1.427-2.84 1.433l-15.55.08c-5.22.027-8.48-1.168-9.78-3.584-1.23-2.417-.43-5.79 2.4-10.118l11.65-17.79c2.88-4.388 6.5-7.776 10.88-10.162 4.48-2.446 9.33-3.683 14.55-3.71l15.56-.08c1.27-.006 1.57.495.91 1.503l-3.03 4.625c-.62.949-1.56 1.426-2.83 1.433l-14.08.072c-5.08.027-9.05 2.234-11.93 6.622l-11.18 17.078c-2.87 4.388-1.77 6.569 3.31 6.543l14.07-.072c1.27-.007 1.58.494.92 1.502ZM1142.78 391.039l-5.08.026c-.7.004-1.14-.082-1.31-.259-.05-.236.09-.621.44-1.155l3.03-4.625c.66-1.008 1.59-1.515 2.79-1.521l5.08-.026c.71-.004 1.25-.302 1.64-.895l5.24-8.006c.66-1.008 1.63-1.515 2.9-1.522l6.66-.034c1.2-.006 1.47.495.81 1.503l-5.24 8.005c-.39.593-.19.888.58.884l9.84-.051c1.27-.006 1.58.494.92 1.502l-3.03 4.626c-.62.948-1.57 1.426-2.84 1.433l-9.84.05c-.77.004-1.36.303-1.74.896l-14.97 22.86c-2.84 4.328-1.61 6.479 3.68 6.452l4.13-.021c1.27-.007 1.57.494.91 1.502l-3.03 4.625c-.62.949-1.56 1.427-2.83 1.433l-5.72.03c-5.22.027-8.53-1.138-9.94-3.495-1.41-2.357-.7-5.699 2.13-10.028l15.27-23.305c.38-.593.23-.887-.48-.884ZM1178.19 428.533l-9.31.048c-5.22.026-8.48-1.168-9.78-3.585-1.23-2.416-.43-5.789 2.41-10.118l11.64-17.79c2.88-4.388 6.5-7.775 10.88-10.162 4.48-2.446 9.33-3.682 14.55-3.709l9.32-.048c5.15-.027 8.37 1.168 9.67 3.585 1.41 2.356.68 5.729-2.19 10.117l-11.65 17.79c-2.84 4.328-6.53 7.716-11.09 10.163-4.48 2.446-9.3 3.682-14.45 3.709Zm-2.88-7.521 6.46-.033c5.08-.026 9.03-2.204 11.87-6.532l11.3-17.256c2.83-4.329 1.71-6.481-3.37-6.454l-6.46.033c-2.68.014-4.97.557-6.86 1.631-1.86 1.014-3.53 2.648-5.01 4.901l-11.3 17.256c-1.47 2.254-1.96 3.911-1.46 4.972.54 1.002 2.15 1.496 4.83 1.482ZM1226.12 428.286l-19.47.1c-1.2.006-1.47-.495-.81-1.503l2.85-4.358c.62-.949 1.53-1.426 2.73-1.433l17.78-.091c4.58-.024 7.75-1.37 9.5-4.038l.7-1.068c1.55-2.372 1.08-4.172-1.42-5.4l-8.51-4.566c-2.66-1.404-4.25-2.962-4.74-4.674-.5-1.711.17-3.96 1.99-6.747 5.01-7.65 12.56-11.501 22.65-11.553l17.56-.09c1.13-.006 1.36.495.7 1.503l-2.85 4.359c-.66 1.008-1.55 1.515-2.68 1.521l-15.45.079c-2.12.011-3.95.346-5.51 1.004-1.52.599-2.61 1.402-3.27 2.41l-.64.978c-1.24 1.898-.53 3.549 2.14 4.954l8.38 4.921c2.77 1.345 4.21 2.963 4.31 4.854.2 1.831-.66 4.229-2.61 7.193-5.04 7.709-12.82 11.591-23.33 11.645ZM835.587 344.988l-12.274.012c-5.22.005-8.475-1.188-9.765-3.58-1.22-2.392-.403-5.72 2.449-9.984l19.516-29.176c2.891-4.323 6.529-7.653 10.913-9.992 4.494-2.398 9.351-3.599 14.571-3.604l12.274-.012c5.149-.005 8.369 1.188 9.659 3.58 1.329 2.334.548 5.662-2.343 9.984l-2.813 4.206c-.703 1.051-1.69 1.577-2.959 1.578l-6.666.007c-1.2.001-1.447-.524-.744-1.575l2.578-3.855c2.892-4.323 1.798-6.482-3.281-6.477l-9.205.009c-5.079.005-9.064 2.169-11.955 6.491l-19.047 28.475c-2.892 4.323-1.798 6.481 3.281 6.476l9.205-.009c5.079-.005 9.064-2.168 11.955-6.491l2.579-3.855c.703-1.051 1.655-1.577 2.854-1.578l6.666-.007c1.269-.001 1.553.524.849 1.575l-2.813 4.206c-2.852 4.264-6.525 7.595-11.019 9.992-4.494 2.398-9.316 3.599-14.465 3.604ZM888.707 344.936l-9.311.01c-5.22.005-8.475-1.189-9.765-3.581-1.22-2.392-.404-5.72 2.449-9.984l11.721-17.523c2.891-4.322 6.529-7.653 10.913-9.992 4.494-2.398 9.351-3.599 14.571-3.604l9.311-.009c5.15-.005 8.369 1.188 9.66 3.58 1.399 2.334.654 5.662-2.238 9.984l-11.721 17.523c-2.852 4.264-6.56 7.595-11.125 9.993-4.494 2.397-9.316 3.598-14.465 3.603Zm-2.848-7.439 6.454-.006c5.079-.005 9.044-2.14 11.897-6.404l11.369-16.997c2.852-4.264 1.739-6.394-3.34-6.389l-6.454.007c-2.681.002-4.972.53-6.875 1.582-1.863.995-3.537 2.601-5.022 4.821l-11.369 16.997c-1.485 2.22-1.979 3.855-1.483 4.905.535.992 2.142 1.486 4.823 1.484ZM925.836 344.9l-6.666.007c-1.199.001-1.467-.495-.802-1.488l27.896-41.705c.664-.993 1.596-1.49 2.795-1.491l6.666-.006c1.199-.001 1.467.494.803 1.487l-2.11 3.155.423-.001c3.764-3.097 8.361-4.649 13.793-4.654l4.655-.004c5.15-.005 8.319 1.159 9.507 3.493 1.188 2.334.317 5.691-2.613 10.071l-19.809 29.614c-.664.993-1.631 1.49-2.901 1.492l-6.666.006c-1.199.001-1.467-.495-.803-1.488l19.575-29.263c2.891-4.322 1.762-6.481-3.387-6.476l-4.973.005c-5.784.005-10.337 2.491-13.658 7.456l-18.93 28.299c-.664.993-1.596 1.49-2.795 1.491ZM991.29 344.837l-19.469.019c-1.199.001-1.467-.495-.803-1.488l2.872-4.293c.625-.935 1.537-1.403 2.736-1.404l17.776-.017c4.585-.004 7.758-1.321 9.518-3.949l.7-1.052c1.56-2.336 1.1-4.116-1.4-5.339l-8.483-4.545c-2.66-1.399-4.235-2.944-4.724-4.636-.489-1.692.184-3.911 2.02-6.657 5.041-7.534 12.607-11.307 22.687-11.317l17.57-.017c1.13-.001 1.36.495.7 1.488l-2.88 4.293c-.66.993-1.56 1.49-2.69 1.491l-15.44.015c-2.12.002-3.96.325-5.52.969-1.52.585-2.61 1.374-3.27 2.367l-.65.964c-1.25 1.869-.54 3.503 2.12 4.901l8.36 4.895c2.77 1.34 4.19 2.944 4.28 4.812.2 1.809-.67 4.174-2.63 7.095-5.08 7.593-12.87 11.395-23.38 11.405ZM1038.01 344.791l-4.76.005c-5.08.005-8.21-1.159-9.4-3.493-1.08-2.392-.17-5.75 2.72-10.072l19.81-29.614c.66-.993 1.59-1.49 2.79-1.491l6.67-.006c1.2-.002 1.47.494.8 1.487l-19.57 29.264c-2.89 4.322-1.8 6.481 3.28 6.476l5.08-.005c5.78-.006 10.33-2.491 13.65-7.456l18.93-28.3c.67-.993 1.6-1.49 2.8-1.491l6.67-.006c1.26-.001 1.57.494.9 1.487l-27.89 41.705c-.67.993-1.63 1.49-2.9 1.491l-6.67.007c-1.2.001-1.47-.495-.8-1.488l2.11-3.154h-.43c-3.76 3.098-8.36 4.649-13.79 4.654ZM1081.67 344.749l-6.67.007c-1.2.001-1.46-.495-.8-1.488l39.21-58.615c.66-.993 1.59-1.49 2.79-1.491l6.67-.006c1.2-.001 1.47.494.8 1.487l-39.21 58.615c-.66.993-1.59 1.49-2.79 1.491ZM1123.86 307.496l-5.07.005c-.71 0-1.14-.087-1.31-.262-.05-.233.09-.613.45-1.138l3.04-4.556c.67-.993 1.6-1.49 2.8-1.491l5.08-.005c.7-.001 1.25-.293 1.64-.878l5.28-7.885c.66-.993 1.63-1.49 2.9-1.491l6.66-.007c1.2-.001 1.47.495.8 1.488l-5.27 7.885c-.39.584-.2.876.58.875l9.84-.009c1.27-.001 1.57.494.91 1.487l-3.05 4.556c-.63.935-1.57 1.403-2.84 1.404l-9.84.01c-.78 0-1.36.293-1.75.877l-15.07 22.517c-2.85 4.264-1.63 6.393 3.66 6.388l4.13-.004c1.27-.001 1.57.495.91 1.488l-3.05 4.556c-.63.934-1.57 1.402-2.84 1.403l-5.72.006c-5.22.005-8.53-1.159-9.93-3.493-1.4-2.333-.67-5.632 2.18-9.896l15.36-22.955c.39-.584.23-.876-.48-.875ZM1159.12 344.674l-9.31.009c-5.22.005-8.48-1.189-9.77-3.581-1.22-2.392-.4-5.72 2.45-9.984l11.72-17.523c2.89-4.322 6.53-7.653 10.92-9.992 4.49-2.397 9.35-3.599 14.57-3.604l9.31-.009c5.15-.005 8.37 1.189 9.66 3.581 1.4 2.333.65 5.661-2.24 9.983l-11.72 17.523c-2.85 4.264-6.56 7.595-11.13 9.993-4.49 2.398-9.31 3.599-14.46 3.604Zm-2.85-7.44 6.45-.006c5.08-.005 9.05-2.139 11.9-6.403l11.37-16.998c2.85-4.264 1.74-6.393-3.34-6.388l-6.45.006c-2.68.003-4.98.53-6.88 1.583-1.86.994-3.54 2.601-5.02 4.82l-11.37 16.998c-1.48 2.219-1.98 3.854-1.48 4.904.53.992 2.14 1.487 4.82 1.484ZM1196.25 344.638l-6.67.006c-1.2.001-1.46-.495-.8-1.487l27.9-41.705c.66-.993 1.59-1.49 2.79-1.491l6.67-.007c1.2-.001 1.46.495.8 1.488l-2.23 3.329h.43c1.68-1.461 3.8-2.631 6.36-3.509 2.63-.878 5.18-1.318 7.65-1.321l3.92-.003c1.2-.002 1.46.494.8 1.487l-3.05 4.556c-.74 1.11-1.65 1.578-2.74 1.404l-6.34.006c-5.86.006-10.56 2.666-14.12 7.982l-18.58 27.774c-.66.993-1.59 1.49-2.79 1.491ZM1274.9 283.008l8.25-.008c.57-.001.82.145.77.437.05.233-.25.584-.92 1.052l-14.75 8.77c-1.1.701-2.18 1.053-3.24 1.054l-4.97.004c-1.2.002-1.15-.495.15-1.488l11.13-8.417c1.12-.935 2.31-1.403 3.58-1.404Zm-50.15 60.114 27.9-41.705c.66-.993 1.56-1.49 2.69-1.491l6.77-.007c1.2-.001 1.46.495.8 1.488l-27.9 41.705c-.39.584-.8.993-1.24 1.227-.33.175-.81.263-1.45.264l-6.77.006c-1.2.001-1.46-.494-.8-1.487ZM1267.29 344.569l-4.13.004c-5.22.005-8.48-1.189-9.77-3.581-1.22-2.392-.4-5.72 2.45-9.984l11.72-17.523c2.9-4.322 6.53-7.653 10.92-9.992 4.49-2.397 9.35-3.599 14.57-3.604l23.7-.023c1.27-.001 1.57.495.91 1.488l-27.9 41.704c-.66.993-1.63 1.491-2.9 1.492l-6.67.006c-1.19.001-1.46-.495-.8-1.487l2.11-3.155-.42.001c-3.77 3.097-8.36 4.648-13.79 4.654Zm21.07-14.906 14.36-21.465c.39-.584.2-.876-.58-.875l-12.59.012c-5.08.005-9.07 2.169-11.96 6.491l-11.25 16.822c-2.89 4.322-1.8 6.481 3.28 6.476l5.08-.005c5.79-.006 10.34-2.491 13.66-7.456Z"/><path stroke="#00004C" stroke-width="6" d="m906.652 260.401.008-.005.008-.004c18.649-10.39 33.9-24.813 45.732-43.224l102.38-159.294c.83-1.303 1.5-2.643 1.8-3.977.31-1.37.28-2.954-.61-4.385-.87-1.398-2.25-2.145-3.56-2.538-1.31-.393-2.82-.52-4.42-.49l-34.66.631c-6.99.128-12.53 3.076-16.216 8.815L896.297 212.801c-4.568 7.107-9.444 12.05-14.563 15.043-4.934 2.741-11.547 4.292-20.026 4.447l-24.339.443c-4.125.075-7.252-.231-9.487-.824-2.056-.547-3.042-1.25-3.495-1.814-.235-.663-.317-1.88.329-3.976.699-2.271 2.133-5.177 4.436-8.76l19.585-30.474c.87-1.354 1.558-2.725 1.891-4.073.339-1.367.366-2.96-.459-4.43-.824-1.469-2.196-2.278-3.536-2.706-1.323-.421-2.852-.556-4.464-.526l-35.065.638c-6.774.124-12.147 3.115-15.806 8.808l-20.92 32.552c-5.962 9.276-9.857 17.639-11.494 25.047-1.647 7.449-1.042 14.11 2.243 19.677 3.267 5.536 8.776 9.412 16.078 11.84 7.273 2.418 16.494 3.464 27.542 3.263l41.253-.752c21.916-.399 42.15-5.668 60.652-15.823ZM1382.28 87.065l.09.188.12.174c.28.438.59 1.444-.01 3.63-.59 2.16-1.95 5.002-4.25 8.582l-9.12 14.198c-.91 1.406-1.62 2.81-1.98 4.175-.36 1.37-.44 2.971.32 4.473.77 1.532 2.13 2.405 3.5 2.869 1.34.452 2.88.594 4.5.565l34.65-.632c7.05-.128 12.64-3.237 16.45-9.161l10.46-16.276c11.6-18.053 15.45-33.255 8.61-44.371-6.36-11.271-21.47-15.848-42.98-15.456l-44.97.82c-22.18.403-42.56 5.672-61.06 15.83-18.52 10.165-33.77 24.597-45.75 43.233l-70.55 109.775c-5.96 9.276-9.86 17.639-11.5 25.047-1.64 7.449-1.04 14.11 2.25 19.677 3.26 5.536 8.77 9.412 16.08 11.84 7.27 2.418 16.49 3.464 27.54 3.263l44.96-.819c21.92-.4 42.15-5.668 60.65-15.824l-1.34-2.451 1.35 2.451c18.92-10.392 34.32-24.819 46.16-43.24l10.46-16.276c.9-1.411 1.61-2.833 1.96-4.224.35-1.41.37-3.039-.47-4.537-.84-1.497-2.24-2.327-3.62-2.768-1.37-.435-2.95-.576-4.63-.545l-34.65.631c-6.83.125-12.26 3.278-16.03 9.154l-9.13 14.198c-4.55 7.091-9.56 12.034-14.95 15.036-4.93 2.75-11.56 4.306-20.05 4.461l-28.05.511c-4.13.075-7.25-.231-9.49-.824-2.05-.547-3.04-1.25-3.49-1.814-.24-.663-.32-1.88.33-3.976.7-2.271 2.13-5.177 4.43-8.76l67.88-105.619c4.58-7.127 9.38-11.932 14.32-14.682 5.4-3.009 12.11-4.66 20.27-4.808l28.05-.51c4.27-.078 7.41.257 9.57.887 2.19.639 2.89 1.43 3.11 1.905ZM974.083 273.891l135.717-2.473c6.56-.119 11.77-3.157 15.4-8.8l15.13-23.548c.9-1.4 1.61-2.788 1.99-4.127.38-1.332.51-2.902-.17-4.4-.7-1.563-2.01-2.483-3.37-2.974-1.31-.473-2.82-.617-4.38-.588l-86.38 1.573 110.69-172.232c.87-1.354 1.56-2.725 1.89-4.073.34-1.367.37-2.96-.46-4.43-.82-1.47-2.19-2.278-3.53-2.706-1.33-.421-2.86-.556-4.47-.526l-35.06.638c-6.78.124-12.15 3.115-15.81 8.808L967.515 262.155c-.87 1.354-1.558 2.725-1.891 4.073-.339 1.367-.366 2.961.459 4.431.823 1.469 2.196 2.278 3.536 2.705 1.323.422 2.852.556 4.464.527Z"/><path fill="#00004C" d="M0 219.5h84V137c0-19.2 15.667-23 23.5-22.5H626L665.5 32H37C7.4 32 0 56.665 0 69v150.5Z"/><path fill="#52A567" d="M0 408V258.5h84V338c0 18.4 15.333 23 23 23h518l41.5 84H37c-29.6 0-37-24.667-37-37Z"/></svg>