<svg xmlns="http://www.w3.org/2000/svg" width="1453" height="461" fill="none"><path fill="#F8AF3E" stroke="#fff" stroke-width="6" d="m749.807 267.146-86.25 142.38 206.17-155.072-54.441-5.868 114.816-142.369-77.975 7.906 48.497-68.382-98.247 15.233-81.44 115.47 48.488 2.21-71.684 94.37 52.066-5.878Z"/><path fill="#fff" d="m735.407 437.386 6.05-.03c4.106-.021 7.446-1.594 10.018-4.72l-5.344-14.342c-4.375.205-8.075 2.604-11.103 7.196l-3.451 5.235c-2.947 4.469-1.67 6.69 3.83 6.661Zm.843 7.867-7.59.039c-5.354.028-8.726-1.176-10.118-3.609-1.392-2.434-.615-5.885 2.332-10.355l4.178-6.336c2.018-3.061 4.747-5.76 8.188-8.096 3.44-2.337 7.075-3.637 10.903-3.9-.868-3.23-.009-6.804 2.574-10.722l1.271-1.929c2.907-4.408 6.744-7.844 11.512-10.31 4.881-2.526 10.036-3.803 15.462-3.831l3.3-.017c5.353-.027 8.726 1.176 10.118 3.609 1.392 2.434.615 5.885-2.332 10.355l-2.361 3.581c-.727 1.102-1.714 1.657-2.96 1.663l-6.93.035c-1.247.007-1.507-.541-.78-1.643l2.24-3.398c2.906-4.408 1.903-6.6-3.01-6.575l-1.32.007c-5.134.026-9.153 2.244-12.06 6.652l-1.271 1.928c-1.817 2.755-2.101 5.625-.852 8.608l2.137 5.572 25.189-.128c1.247-.007 1.507.541.78 1.643l-3.088 4.684c-.686 1.041-1.652 1.564-2.899 1.571l-17.27.088 6.854 19.368c.132.244.023.519-.325.826-.275.306-.633.461-1.073.463l-8.8.045c-1.466.007-2.288-.354-2.463-1.086l-1.878-5.299c-4.512 4.295-10.399 6.46-17.658 6.497ZM812.746 446.704l-6.93.036c-1.246.006-1.526-.511-.84-1.552l36.874-55.928c.686-1.041 1.652-1.565 2.899-1.571l26.18-.134c5.353-.027 8.705 1.206 10.057 3.701 1.392 2.434.595 5.916-2.393 10.447l-6.297 9.551c-2.946 4.469-6.75 7.966-11.412 10.492-4.662 2.526-9.669 3.802-15.022 3.829l-16.06.082c-.88.005-1.522.313-1.926.926l-12.23 18.55c-.687 1.041-1.653 1.565-2.9 1.571Zm22.153-28.944 14.63-.075c5.206-.026 9.303-2.305 12.29-6.836l5.752-8.724c2.987-4.531 1.878-6.783-3.329-6.756l-14.63.075c-.806.004-1.412.312-1.815.924l-13.502 20.48c-.404.612-.203.916.604.912ZM869.761 446.413l-6.93.035c-1.247.007-1.527-.511-.841-1.551l28.821-43.715c.686-1.04 1.653-1.564 2.9-1.57l6.929-.036c1.247-.006 1.527.511.841 1.552l-2.301 3.49.44-.003c1.743-1.534 3.943-2.765 6.602-3.694 2.732-.93 5.382-1.401 7.948-1.414l4.07-.021c1.247-.006 1.527.511.841 1.552l-3.149 4.775c-.767 1.164-1.713 1.657-2.838 1.479l-6.6.034c-6.087.031-10.967 2.833-14.64 8.404l-19.194 29.112c-.686 1.041-1.653 1.564-2.899 1.571ZM923.436 446.138l-9.68.05c-5.427.028-8.816-1.206-10.167-3.701-1.279-2.495-.445-5.977 2.502-10.447l12.11-18.367c2.987-4.53 6.754-8.028 11.302-10.492 4.662-2.525 9.706-3.802 15.133-3.83l9.679-.049c5.354-.027 8.706 1.206 10.058 3.701 1.465 2.433.704 5.915-2.283 10.446l-12.109 18.367c-2.947 4.469-6.788 7.967-11.523 10.493-4.661 2.526-9.669 3.802-15.022 3.829Zm-2.993-7.764 6.709-.034c5.28-.027 9.394-2.276 12.34-6.745l11.747-17.816c2.946-4.47 1.78-6.691-3.5-6.664l-6.71.035c-2.787.014-5.167.575-7.14 1.684-1.933 1.047-3.666 2.734-5.2 5.06l-11.746 17.816c-1.534 2.327-2.041 4.038-1.521 5.134.56 1.034 2.234 1.544 5.021 1.53ZM950.026 460.83l-5.83.03c-1.246.006-1.527-.511-.84-1.552l3.088-4.684c.726-1.102 1.713-1.656 2.959-1.662l2.53-.013c4.474-.023 8.038-.774 10.693-2.252 2.729-1.478 5.79-3.904 9.184-7.277l-4.4.022c-1.1.006-1.527-.51-1.281-1.549l12.557-41.16c.392-1.039 1.212-1.562 2.459-1.568l7.37-.038c1.173-.006 1.563.511 1.17 1.55l-11.745 35.939.44-.003 35.73-36.061c.9-1.042 1.98-1.566 3.22-1.572l7.04-.036c1.4-.007 1.62.541.67 1.644l-44.189 44.25c-5.078 5.152-10.044 9.082-14.9 11.792-4.897 2.77-10.205 4.171-15.925 4.2ZM1044.29 445.521l-23.76.121c-5.42.028-8.81-1.206-10.17-3.701-1.27-2.495-.44-5.977 2.51-10.446l12.11-18.368c2.98-4.53 6.75-8.028 11.3-10.492 4.66-2.525 9.7-3.802 15.13-3.829l9.02-.047c5.43-.027 8.82 1.206 10.17 3.701 1.39 2.434.59 5.916-2.39 10.446l-7.69 11.663c-.73 1.103-1.75 1.657-3.07 1.664l-29.48.15c-.81.005-1.41.313-1.82.925l-2.6 3.949c-2.95 4.469-1.75 6.69 3.61 6.663l22.22-.114c1.32-.006 1.61.541.89 1.643l-3.03 4.592c-.65.98-1.63 1.473-2.95 1.48Zm-12.21-25.382 19.69-.101c.74-.004 1.31-.312 1.71-.924l3.87-5.878c1.54-2.326 2.03-4.007 1.46-5.041-.52-1.096-2.17-1.636-4.96-1.622l-6.05.031c-2.78.014-5.16.575-7.13 1.684-1.94 1.047-3.67 2.734-5.2 5.06l-3.88 5.878c-.4.612-.24.916.49.913ZM1097.05 439.027l-3.15 4.776c-.65.979-1.63 1.472-2.95 1.479l-16.17.083c-5.43.027-8.82-1.206-10.17-3.701-1.28-2.495-.44-5.977 2.5-10.447l12.11-18.367c2.99-4.531 6.76-8.028 11.31-10.492 4.66-2.525 9.7-3.802 15.13-3.83l16.17-.082c1.32-.007 1.64.51.95 1.551l-3.15 4.775c-.65.98-1.63 1.473-2.95 1.48l-14.63.074c-5.28.027-9.41 2.306-12.4 6.837l-11.62 17.632c-2.99 4.531-1.84 6.783 3.44 6.756l14.63-.075c1.32-.007 1.63.51.95 1.551ZM1130.79 406.179l-5.28.027c-.73.004-1.18-.085-1.36-.267-.05-.244.1-.641.46-1.192l3.15-4.776c.69-1.041 1.65-1.564 2.9-1.571l5.28-.027c.73-.003 1.3-.311 1.7-.924l5.45-8.265c.69-1.041 1.69-1.564 3.01-1.571l6.93-.036c1.25-.006 1.53.511.84 1.552l-5.45 8.265c-.4.613-.2.917.61.912l10.23-.052c1.32-.007 1.64.51.95 1.551l-3.15 4.776c-.65.979-1.63 1.472-2.95 1.479l-10.23.053c-.8.004-1.41.312-1.81.924l-15.56 23.602c-2.95 4.469-1.67 6.69 3.83 6.662l4.29-.022c1.32-.007 1.63.51.95 1.551l-3.15 4.776c-.65.979-1.63 1.472-2.95 1.479l-5.94.03c-5.43.028-8.87-1.175-10.34-3.608-1.46-2.433-.72-5.884 2.22-10.354l15.87-24.061c.4-.612.24-.916-.5-.913ZM1167.6 444.89l-9.68.05c-5.42.027-8.81-1.206-10.16-3.701-1.28-2.495-.45-5.977 2.5-10.447l12.11-18.367c2.98-4.531 6.75-8.028 11.3-10.492 4.66-2.525 9.71-3.802 15.13-3.83l9.68-.049c5.36-.028 8.71 1.206 10.06 3.701 1.46 2.433.7 5.915-2.28 10.446l-12.11 18.367c-2.95 4.469-6.79 7.967-11.53 10.493-4.66 2.525-9.66 3.802-15.02 3.829Zm-2.99-7.764 6.71-.035c5.28-.027 9.39-2.275 12.34-6.744l11.75-17.816c2.94-4.47 1.78-6.691-3.5-6.664l-6.71.034c-2.79.015-5.17.576-7.14 1.684-1.94 1.047-3.67 2.734-5.2 5.061l-11.75 17.816c-1.53 2.327-2.04 4.038-1.52 5.133.56 1.035 2.23 1.545 5.02 1.531ZM1217.42 444.635l-20.24.104c-1.24.006-1.52-.511-.84-1.552l2.97-4.5c.64-.979 1.59-1.472 2.84-1.479l18.48-.094c4.76-.025 8.05-1.414 9.87-4.169l.73-1.102c1.61-2.449 1.12-4.308-1.48-5.576l-8.84-4.714c-2.77-1.45-4.41-3.059-4.93-4.826-.52-1.767.17-4.089 2.07-6.966 5.21-7.898 13.05-11.874 23.54-11.928l18.26-.093c1.17-.006 1.42.511.73 1.552l-2.97 4.5c-.68 1.041-1.61 1.564-2.78 1.57l-16.06.082c-2.2.012-4.11.357-5.73 1.036-1.58.619-2.71 1.448-3.39 2.489l-.67 1.01c-1.29 1.959-.55 3.664 2.22 5.114l8.71 5.081c2.88 1.389 4.38 3.059 4.48 5.011.21 1.891-.69 4.367-2.71 7.428-5.24 7.959-13.33 11.967-24.26 12.022ZM811.788 358.321l-12.76.013c-5.427.005-8.811-1.242-10.152-3.743-1.268-2.5-.42-5.979 2.546-10.436l20.289-30.498c3.005-4.518 6.787-8 11.345-10.445 4.672-2.506 9.722-3.762 15.148-3.767l12.76-.013c5.354-.005 8.701 1.242 10.042 3.743 1.382 2.439.57 5.918-2.436 10.436l-2.924 4.396c-.731 1.099-1.757 1.649-3.077 1.651l-6.93.006c-1.246.002-1.504-.547-.773-1.646l2.681-4.03c3.006-4.518 1.868-6.775-3.412-6.77l-9.57.01c-5.28.005-9.422 2.267-12.428 6.785l-19.802 29.765c-3.005 4.518-1.868 6.775 3.412 6.77l9.57-.01c5.28-.005 9.423-2.267 12.428-6.785l2.681-4.03c.731-1.099 1.72-1.649 2.967-1.65l6.93-.007c1.32-.001 1.614.548.883 1.647l-2.924 4.396c-2.966 4.457-6.784 7.939-11.456 10.445-4.672 2.506-9.685 3.762-15.038 3.767ZM867.012 358.267l-9.68.01c-5.427.005-8.811-1.242-10.152-3.743-1.268-2.5-.419-5.979 2.546-10.436l12.185-18.317c3.006-4.518 6.788-8 11.346-10.445 4.672-2.506 9.722-3.762 15.148-3.768l9.68-.009c5.353-.005 8.701 1.242 10.042 3.743 1.455 2.439.68 5.918-2.326 10.436l-12.185 18.317c-2.965 4.457-6.821 7.939-11.566 10.445-4.672 2.506-9.685 3.762-15.038 3.767Zm-2.961-7.776 6.71-.007c5.28-.005 9.403-2.236 12.368-6.693l11.82-17.768c2.965-4.457 1.807-6.683-3.473-6.678l-6.71.007c-2.786.002-5.169.554-7.146 1.654-1.938 1.039-3.678 2.719-5.221 5.039l-11.82 17.768c-1.544 2.32-2.058 4.029-1.542 5.127.556 1.036 2.227 1.553 5.014 1.551ZM905.612 358.23l-6.93.006c-1.247.002-1.525-.517-.834-1.555l29.001-43.594c.691-1.038 1.659-1.558 2.906-1.559l6.93-.007c1.247-.001 1.525.517.834 1.555l-2.193 3.297h.44c3.912-3.238 8.692-4.859 14.339-4.865l4.84-.005c5.353-.005 8.647 1.212 9.883 3.652 1.235 2.439.329 5.949-2.717 10.528l-20.593 30.956c-.691 1.038-1.696 1.557-3.016 1.559l-6.93.006c-1.247.002-1.525-.517-.834-1.555l20.349-30.589c3.006-4.518 1.832-6.775-3.521-6.77l-5.17.005c-6.013.006-10.746 2.604-14.199 7.794l-19.679 29.582c-.691 1.038-1.66 1.557-2.906 1.559ZM973.658 358.163l-20.24.02c-1.247.001-1.525-.517-.834-1.555l2.985-4.488c.65-.977 1.598-1.466 2.845-1.467l18.48-.018c4.767-.005 8.064-1.381 9.892-4.128l.731-1.099c1.625-2.443 1.14-4.303-1.454-5.582l-8.821-4.751c-2.766-1.461-4.402-3.077-4.911-4.846-.509-1.769.191-4.088 2.1-6.958 5.24-7.876 13.103-11.819 23.59-11.83l18.259-.017c1.17-.002 1.42.517.73 1.555l-2.99 4.487c-.69 1.038-1.62 1.558-2.8 1.559l-16.056.016c-2.2.002-4.11.339-5.73 1.012-1.58.612-2.715 1.437-3.405 2.475l-.67 1.007c-1.3 1.954-.568 3.662 2.198 5.123l8.688 5.117c2.879 1.401 4.365 3.077 4.455 5.03.21 1.891-.701 4.363-2.732 7.416-5.28 7.938-13.383 11.912-24.31 11.922ZM1022.23 358.116l-4.95.005c-5.28.005-8.54-1.212-9.77-3.652-1.12-2.5-.18-6.01 2.82-10.528l20.6-30.956c.69-1.038 1.66-1.557 2.9-1.559l6.93-.006c1.25-.002 1.53.517.84 1.555l-20.35 30.589c-3.01 4.518-1.87 6.775 3.41 6.77l5.28-.005c6.01-.006 10.75-2.604 14.2-7.794l19.68-29.582c.69-1.038 1.66-1.557 2.9-1.559l6.93-.006c1.32-.002 1.64.517.95 1.555l-29 43.594c-.69 1.038-1.7 1.558-3.02 1.559l-6.93.007c-1.25.001-1.52-.517-.83-1.555l2.19-3.297h-.44c-3.91 3.238-8.69 4.859-14.34 4.865ZM1067.62 358.071l-6.93.007c-1.25.001-1.53-.517-.84-1.555l40.76-61.27c.69-1.038 1.66-1.558 2.91-1.559l6.93-.007c1.25-.001 1.52.517.83 1.555l-40.76 61.271c-.69 1.038-1.66 1.557-2.9 1.558ZM1111.48 319.13l-5.28.005c-.73.001-1.18-.09-1.35-.273-.06-.244.09-.641.46-1.19l3.17-4.763c.69-1.038 1.66-1.557 2.9-1.558l5.28-.005c.74-.001 1.31-.307 1.71-.917l5.49-8.243c.69-1.038 1.69-1.558 3.01-1.559l6.93-.007c1.25-.001 1.53.517.84 1.555l-5.49 8.243c-.4.611-.2.916.6.915l10.23-.01c1.32-.002 1.64.517.95 1.555l-3.17 4.762c-.65.977-1.64 1.466-2.96 1.467l-10.23.01c-.8.001-1.41.307-1.81.918l-15.66 23.537c-2.97 4.457-1.7 6.683 3.8 6.678l4.29-.005c1.32-.001 1.63.517.94 1.555l-3.16 4.763c-.65.977-1.64 1.466-2.96 1.467l-5.94.006c-5.43.005-8.87-1.212-10.32-3.651-1.46-2.439-.7-5.888 2.26-10.345l15.97-23.995c.4-.611.24-.915-.5-.915ZM1148.14 357.993l-9.68.009c-5.43.006-8.82-1.242-10.16-3.742-1.26-2.501-.42-5.98 2.55-10.437l12.18-18.317c3.01-4.518 6.79-8 11.35-10.445 4.67-2.506 9.72-3.762 15.15-3.767l9.68-.01c5.35-.005 8.7 1.243 10.04 3.743 1.46 2.439.68 5.918-2.33 10.436l-12.18 18.317c-2.97 4.458-6.82 7.939-11.57 10.446-4.67 2.506-9.68 3.762-15.03 3.767Zm-2.97-7.777 6.71-.007c5.28-.005 9.41-2.236 12.37-6.693l11.82-17.767c2.97-4.458 1.81-6.684-3.47-6.678l-6.71.006c-2.79.003-5.17.554-7.15 1.655-1.93 1.039-3.67 2.718-5.22 5.039l-11.82 17.767c-1.54 2.32-2.06 4.029-1.54 5.127.56 1.037 2.23 1.554 5.01 1.551ZM1186.73 357.955l-6.93.007c-1.24.001-1.52-.517-.83-1.555l29-43.595c.69-1.038 1.66-1.557 2.91-1.558l6.93-.007c1.24-.001 1.52.517.83 1.555l-2.31 3.48h.44c1.75-1.527 3.95-2.75 6.61-3.668 2.74-.918 5.39-1.378 7.96-1.38l4.07-.004c1.24-.002 1.52.517.83 1.555l-3.17 4.762c-.77 1.16-1.72 1.649-2.84 1.467l-6.6.007c-6.09.006-10.98 2.787-14.68 8.343l-19.31 29.032c-.69 1.038-1.66 1.558-2.91 1.559ZM1268.5 293.533l8.58-.009c.59 0 .85.152.8.457.06.244-.26.611-.95 1.099l-15.34 9.168c-1.14.733-2.27 1.101-3.37 1.102l-5.17.005c-1.24.001-1.19-.518.16-1.556l11.57-8.798c1.16-.978 2.4-1.467 3.72-1.468Zm-52.13 62.837 29-43.594c.69-1.038 1.62-1.558 2.79-1.559l7.04-.007c1.25-.001 1.53.517.84 1.555l-29 43.595c-.41.61-.84 1.038-1.3 1.282-.34.184-.84.276-1.5.277l-7.04.006c-1.25.002-1.52-.517-.83-1.555ZM1260.59 357.883l-4.29.004c-5.43.005-8.81-1.242-10.16-3.742-1.26-2.501-.41-5.98 2.55-10.437l12.19-18.317c3-4.518 6.78-8 11.34-10.445 4.67-2.506 9.72-3.762 15.15-3.767l24.64-.024c1.32-.002 1.63.517.94 1.555l-29 43.594c-.69 1.038-1.69 1.558-3.01 1.559l-6.93.007c-1.25.001-1.53-.517-.84-1.555l2.2-3.297h-.44c-3.92 3.238-8.7 4.859-14.34 4.865Zm21.9-15.581 14.93-22.438c.41-.611.21-.916-.6-.915l-13.09.013c-5.28.005-9.42 2.267-12.43 6.785l-11.7 17.584c-3 4.519-1.86 6.775 3.42 6.77l5.28-.005c6.01-.006 10.74-2.604 14.19-7.794Z"/><path fill="#00004C" stroke="#fff" stroke-width="6" d="m885.335 269.769.009-.005.008-.004c19.366-10.785 35.204-25.756 47.492-44.868L1039.26 59.391c.86-1.348 1.55-2.728 1.86-4.095.32-1.404.28-3.015-.62-4.47-.89-1.42-2.29-2.182-3.64-2.586-1.34-.402-2.9-.533-4.56-.503l-36.019.656c-7.23.131-12.948 3.175-16.76 9.104L874.729 220.48c-4.754 7.395-9.836 12.546-15.177 15.667-5.151 2.861-12.047 4.475-20.872 4.636l-25.298.46c-4.294.079-7.557-.239-9.894-.86-2.168-.576-3.22-1.324-3.708-1.94-.261-.719-.346-2.015.334-4.223.731-2.373 2.228-5.403 4.624-9.129l20.357-31.661c.901-1.401 1.609-2.814 1.951-4.197.347-1.402.372-3.025-.466-4.519-.837-1.492-2.233-2.318-3.608-2.756-1.357-.433-2.933-.572-4.602-.542l-36.447.664c-7.001.128-12.549 3.215-16.331 9.097l-21.745 33.819c-6.193 9.632-10.233 18.308-11.931 25.986-1.707 7.72-1.077 14.608 2.318 20.36 3.377 5.72 9.077 9.733 16.648 12.249 7.542 2.507 17.111 3.593 28.587 3.384l42.879-.781c22.762-.414 43.774-5.884 62.987-16.425ZM1379.88 89.733l.09.188.11.174c.33.495.64 1.579.01 3.866-.62 2.259-2.04 5.224-4.43 8.947l-9.48 14.751c-.94 1.456-1.67 2.904-2.04 4.305-.38 1.407-.45 3.04.32 4.566.78 1.556 2.17 2.447 3.57 2.922 1.37.464 2.96.611 4.64.581l36.02-.656c7.28-.133 13.05-3.343 16.99-9.464l10.87-16.91c12.06-18.755 16.03-34.493 8.95-45.978-6.57-11.65-22.21-16.408-44.57-16l-46.74.85c-23.04.42-44.2 5.889-63.41 16.433-19.24 10.551-35.07 25.531-47.51 44.878l-73.33 114.051c-6.2 9.632-10.24 18.308-11.94 25.986-1.7 7.72-1.07 14.608 2.32 20.36 3.38 5.72 9.08 9.733 16.65 12.249 7.54 2.507 17.11 3.593 28.59 3.384l46.74-.851c22.76-.415 43.77-5.884 62.98-16.425l-1.44-2.63 1.44 2.63c19.66-10.788 35.65-25.763 47.94-44.885l10.87-16.91c.94-1.462 1.68-2.927 2.03-4.354.36-1.447.38-3.107-.48-4.63-.85-1.521-2.28-2.369-3.69-2.821-1.41-.447-3.04-.593-4.78-.561l-36.02.656c-7.05.129-12.65 3.382-16.56 9.456l-9.48 14.752c-4.75 7.378-9.96 12.53-15.58 15.66-5.16 2.871-12.06 4.489-20.9 4.65l-29.16.531c-4.29.079-7.56-.239-9.89-.86-2.17-.576-3.22-1.324-3.71-1.94-.26-.719-.35-2.015.33-4.223.73-2.373 2.23-5.403 4.63-9.129l70.55-109.734c4.77-7.415 9.77-12.424 14.92-15.294 5.64-3.137 12.64-4.855 21.13-5.01l29.16-.53c4.44-.081 7.72.267 9.98.926 2.29.669 3.06 1.506 3.31 2.043ZM955.48 283.77l141.07-2.569c6.77-.123 12.15-3.257 15.9-9.089l15.73-24.465c.94-1.45 1.67-2.881 2.06-4.257.39-1.369.51-2.97-.17-4.493-.71-1.587-2.05-2.525-3.44-3.027-1.35-.484-2.9-.634-4.51-.604l-90 1.639 115.17-179.126c.9-1.402 1.61-2.814 1.95-4.197.34-1.402.37-3.025-.47-4.519-.84-1.492-2.23-2.318-3.61-2.756-1.35-.433-2.93-.572-4.6-.542l-36.45.664c-7 .128-12.54 3.215-16.33 9.097l-139.025 216.23c-.901 1.402-1.609 2.814-1.951 4.197-.347 1.402-.372 3.026.466 4.519.837 1.492 2.233 2.318 3.608 2.756 1.358.433 2.933.572 4.602.542Z"/><path fill="#00004C" d="M0 234.5h84V152c0-19.2 15.667-23 23.5-22.5H626L665.5 47H37C7.4 47 0 71.667 0 84v150.5Z"/><path fill="#52A567" d="M0 423V273.5h84V353c0 18.4 15.333 23 23 23h518l41.5 84H37c-29.6 0-37-24.667-37-37Z"/></svg>