<svg xmlns="http://www.w3.org/2000/svg" width="153" height="100" fill="none" viewBox="0 0 1406 916"><path fill="#00004C" d="m616.407 631.386 6.05-.031c4.106-.021 7.446-1.594 10.018-4.719l-5.344-14.342c-4.375.205-8.075 2.604-11.103 7.196l-3.451 5.234c-2.947 4.47-1.67 6.69 3.83 6.662Zm.843 7.867-7.59.039c-5.354.027-8.726-1.176-10.118-3.609-1.392-2.434-.615-5.886 2.332-10.355l4.178-6.337c2.018-3.061 4.747-5.76 8.188-8.096 3.44-2.336 7.075-3.636 10.903-3.9-.868-3.229-.009-6.803 2.574-10.721l1.271-1.929c2.907-4.408 6.744-7.845 11.512-10.31 4.881-2.527 10.036-3.804 15.462-3.832l3.3-.016c5.353-.028 8.726 1.175 10.118 3.609 1.392 2.434.615 5.885-2.332 10.354l-2.361 3.582c-.727 1.102-1.714 1.656-2.96 1.663l-6.93.035c-1.247.006-1.507-.541-.78-1.643l2.24-3.398c2.906-4.409 1.903-6.6-3.01-6.575l-1.32.007c-5.134.026-9.153 2.243-12.06 6.651l-1.271 1.929c-1.817 2.755-2.101 5.624-.852 8.608l2.137 5.572 25.189-.129c1.247-.006 1.507.542.78 1.644l-3.088 4.683c-.686 1.041-1.652 1.565-2.899 1.571l-17.27.088 6.854 19.369c.132.244.023.519-.325.826-.275.306-.633.46-1.073.463l-8.8.045c-1.466.007-2.288-.355-2.463-1.086l-1.878-5.299c-4.512 4.294-10.399 6.46-17.658 6.497ZM693.746 640.704l-6.929.035c-1.247.007-1.527-.51-.841-1.551l36.874-55.929c.686-1.04 1.652-1.564 2.899-1.57l26.18-.134c5.353-.027 8.706 1.206 10.057 3.701 1.392 2.434.595 5.916-2.392 10.446l-6.297 9.551c-2.947 4.47-6.751 7.967-11.413 10.493-4.662 2.525-9.669 3.802-15.022 3.829l-16.06.082c-.88.005-1.522.313-1.925.925l-12.231 18.551c-.686 1.041-1.653 1.565-2.9 1.571Zm22.153-28.944 14.63-.075c5.207-.027 9.303-2.305 12.29-6.836l5.753-8.724c2.987-4.531 1.877-6.783-3.33-6.756l-14.63.075c-.806.004-1.411.312-1.815.924l-13.502 20.48c-.404.612-.203.916.604.912ZM750.761 640.413l-6.93.035c-1.247.006-1.527-.511-.841-1.552l28.821-43.714c.687-1.041 1.653-1.564 2.9-1.571l6.93-.035c1.246-.006 1.526.511.84 1.552l-2.301 3.489.44-.002c1.743-1.534 3.944-2.766 6.602-3.695 2.732-.929 5.382-1.4 7.948-1.413l4.07-.021c1.247-.006 1.527.511.841 1.552l-3.148 4.775c-.767 1.163-1.714 1.656-2.839 1.479l-6.6.034c-6.087.031-10.967 2.832-14.64 8.404l-19.194 29.112c-.686 1.041-1.652 1.564-2.899 1.571ZM804.436 640.138l-9.68.05c-5.427.027-8.816-1.206-10.167-3.701-1.279-2.495-.444-5.977 2.502-10.447l12.11-18.367c2.987-4.531 6.755-8.028 11.302-10.492 4.662-2.525 9.706-3.802 15.133-3.83l9.68-.049c5.353-.028 8.705 1.206 10.057 3.701 1.465 2.433.704 5.915-2.283 10.446l-12.109 18.367c-2.947 4.469-6.788 7.967-11.523 10.493-4.661 2.525-9.669 3.802-15.022 3.829Zm-2.993-7.764 6.71-.035c5.28-.027 9.393-2.275 12.34-6.744l11.746-17.816c2.947-4.47 1.78-6.691-3.5-6.664l-6.71.034c-2.787.015-5.166.576-7.14 1.684-1.933 1.048-3.666 2.734-5.2 5.061l-11.746 17.816c-1.534 2.327-2.041 4.038-1.521 5.133.561 1.035 2.234 1.545 5.021 1.531ZM831.026 654.83l-5.83.029c-1.246.007-1.526-.511-.84-1.551l3.088-4.684c.726-1.102 1.713-1.656 2.96-1.663l2.53-.013c4.473-.022 8.037-.773 10.693-2.251 2.728-1.478 5.789-3.904 9.183-7.277l-4.4.022c-1.1.006-1.527-.511-1.281-1.549l12.557-41.16c.393-1.039 1.212-1.562 2.459-1.569l7.37-.037c1.173-.006 1.563.51 1.171 1.55l-11.746 35.938.44-.002 35.725-36.061c.906-1.042 1.983-1.566 3.229-1.573l7.04-.036c1.394-.007 1.617.541.67 1.645l-44.193 44.25c-5.077 5.151-10.044 9.082-14.9 11.791-4.897 2.771-10.205 4.171-15.925 4.201ZM925.292 639.52l-23.76.122c-5.427.028-8.816-1.206-10.167-3.701-1.279-2.495-.444-5.977 2.502-10.447l12.11-18.367c2.987-4.531 6.754-8.028 11.302-10.492 4.662-2.525 9.706-3.802 15.133-3.83l9.02-.046c5.426-.028 8.815 1.206 10.167 3.701 1.392 2.433.594 5.915-2.393 10.446l-7.689 11.663c-.727 1.102-1.75 1.657-3.07 1.663l-29.48.151c-.806.004-1.412.312-1.815.925l-2.604 3.949c-2.946 4.469-1.743 6.69 3.61 6.663l22.22-.114c1.32-.007 1.616.541.89 1.643l-3.028 4.592c-.645.979-1.628 1.473-2.948 1.479Zm-12.207-25.382 19.689-.1c.734-.004 1.302-.312 1.706-.924l3.875-5.878c1.534-2.326 2.02-4.007 1.46-5.041-.52-1.096-2.173-1.637-4.96-1.622l-6.05.03c-2.787.015-5.167.576-7.14 1.684-1.933 1.048-3.666 2.734-5.2 5.061l-3.875 5.878c-.404.612-.239.916.495.912ZM978.046 633.027l-3.148 4.775c-.646.98-1.629 1.473-2.949 1.48l-16.17.082c-5.426.028-8.815-1.205-10.167-3.7-1.278-2.495-.444-5.978 2.503-10.447l12.109-18.367c2.987-4.531 6.755-8.028 11.303-10.492 4.661-2.526 9.705-3.802 15.132-3.83l16.171-.083c1.32-.006 1.64.511.95 1.551l-3.15 4.776c-.645.979-1.628 1.473-2.948 1.479l-14.63.075c-5.28.027-9.413 2.306-12.4 6.837l-11.625 17.632c-2.987 4.531-1.841 6.782 3.439 6.755l14.63-.074c1.32-.007 1.637.51.95 1.551ZM1011.79 600.179l-5.28.027c-.73.004-1.18-.085-1.36-.267-.05-.244.1-.642.46-1.193l3.15-4.775c.69-1.041 1.65-1.565 2.9-1.571l5.28-.027c.73-.004 1.3-.312 1.7-.924l5.45-8.265c.69-1.041 1.69-1.565 3.01-1.571l6.93-.036c1.25-.006 1.53.511.84 1.552l-5.45 8.265c-.4.612-.2.916.61.912l10.23-.052c1.32-.007 1.64.51.95 1.551l-3.15 4.775c-.65.98-1.63 1.473-2.95 1.48l-10.23.052c-.8.004-1.41.313-1.81.925l-15.56 23.602c-2.95 4.469-1.67 6.69 3.83 6.662l4.29-.022c1.32-.007 1.63.51.95 1.551l-3.15 4.775c-.65.98-1.63 1.473-2.95 1.48l-5.94.03c-5.428.028-8.874-1.175-10.339-3.608-1.465-2.433-.725-5.885 2.222-10.354l15.867-24.061c.4-.612.24-.917-.5-.913ZM1048.6 638.89l-9.68.049c-5.42.028-8.81-1.205-10.16-3.7-1.28-2.495-.45-5.978 2.5-10.447l12.11-18.367c2.98-4.531 6.75-8.028 11.3-10.492 4.66-2.526 9.71-3.802 15.13-3.83l9.68-.05c5.36-.027 8.71 1.207 10.06 3.702 1.47 2.433.7 5.915-2.28 10.445l-12.11 18.368c-2.95 4.469-6.79 7.967-11.52 10.492-4.67 2.526-9.67 3.803-15.03 3.83Zm-2.99-7.765 6.71-.034c5.28-.027 9.39-2.275 12.34-6.744l11.75-17.817c2.94-4.469 1.78-6.69-3.5-6.663l-6.71.034c-2.79.014-5.17.576-7.14 1.684-1.94 1.047-3.67 2.734-5.2 5.061l-11.75 17.816c-1.53 2.326-2.04 4.037-1.52 5.133.56 1.035 2.23 1.545 5.02 1.53ZM1098.42 638.635l-20.24.104c-1.24.006-1.52-.511-.84-1.552l2.97-4.5c.64-.98 1.59-1.473 2.84-1.479l18.48-.094c4.76-.025 8.05-1.414 9.87-4.17l.73-1.102c1.61-2.449 1.12-4.307-1.48-5.575l-8.84-4.714c-2.77-1.451-4.41-3.059-4.93-4.826-.52-1.767.17-4.089 2.07-6.967 5.21-7.898 13.05-11.873 23.54-11.927l18.26-.093c1.17-.006 1.42.511.73 1.552l-2.96 4.5c-.69 1.041-1.62 1.564-2.79 1.57l-16.06.082c-2.2.011-4.11.357-5.73 1.036-1.58.618-2.71 1.448-3.39 2.489l-.67 1.01c-1.29 1.959-.55 3.664 2.22 5.114l8.71 5.081c2.88 1.389 4.38 3.059 4.48 5.011.21 1.891-.69 4.366-2.71 7.428-5.24 7.959-13.33 11.966-24.26 12.022Z"/><path fill="#F8AF3E" stroke="#fff" stroke-width="6" d="M434.079 538.002 294.773 836.001 667 487.672H558.797L754.23 183.646 602.706 215.69l80.803-144.62-189.803 50.732-135.555 244.11 95.735-5.925-120.857 200.589 101.05-22.574Z"/><path fill="#00004C" d="M766.205 190H1406l-184.13 286H582l184.205-286Z"/><path fill="#fff" d="m900.237 237.303 31.915-.583c5.319-.097 6.612 1.987 3.879 6.253l-94.288 147.191c-10.658 16.638-24.371 29.644-41.139 39.015-16.63 9.159-34.824 13.919-54.581 14.28l-37.993.694c-20.01.366-32.592-3.831-37.744-12.592-5.152-8.76-2.331-21.566 8.465-38.418l19.267-30.078c2.87-4.48 6.964-6.769 12.283-6.866l32.295-.59c5.319-.097 6.544 2.094 3.674 6.574l-18.038 28.158c-4.372 6.826-5.869 11.702-4.489 14.629 1.769 2.708 6.58 3.99 14.432 3.847l22.417-.41c8.105-.148 14.692-1.639 19.761-4.472 5.206-3.047 9.996-7.983 14.368-14.809l92.853-144.951c2.87-4.479 7.091-6.77 12.663-6.872ZM988.987 439.018l-124.999 2.285c-5.32.097-6.544-2.094-3.675-6.574l123.189-192.307c2.87-4.48 6.964-6.768 12.283-6.865l32.295-.591c5.32-.097 6.54 2.094 3.67 6.574L929.268 401.529c-1.504 2.347-.735 3.492 2.304 3.437l80.168-1.465c5.06-.093 6.09 2.207 3.09 6.9l-13.94 21.759c-2.87 4.479-6.837 6.766-11.903 6.858ZM1126.99 436.496l-41.42.757c-20.01.365-32.59-3.832-37.74-12.592-5.15-8.76-2.33-21.567 8.46-38.419l64.98-101.433c10.8-16.852 24.51-29.858 41.14-39.016 16.63-9.158 34.95-13.921 54.96-14.286l41.41-.757c19.76-.361 32.15 3.945 37.16 12.919 5.41 8.755 2.78 21.453-7.88 38.091l-9.63 15.039c-3.01 4.693-7.3 7.091-12.87 7.193l-31.91.583c-5.32.097-6.48-2.201-3.47-6.894l8.4-13.119c4.37-6.826 5.68-11.593 3.91-14.302-1.38-2.926-6.13-4.315-14.23-4.167l-25.84.472c-7.85.144-14.5 1.741-19.96 4.793-5.07 2.833-9.79 7.663-14.17 14.489l-62.51 97.593c-4.38 6.826-5.87 11.703-4.49 14.629 1.77 2.708 6.58 3.991 14.43 3.847l25.84-.472c8.1-.148 14.69-1.639 19.76-4.472 5.46-3.051 10.37-7.99 14.74-14.816l8.41-13.12c3-4.693 7.17-7.088 12.49-7.185l31.91-.583c5.57-.102 6.86 2.194 3.85 6.887l-9.63 15.039c-10.66 16.638-24.5 29.646-41.52 39.022-16.63 9.159-34.83 13.919-54.58 14.28Z"/><path fill="#00004C" d="m692.788 552.321-12.76.013c-5.427.005-8.811-1.243-10.152-3.743-1.268-2.501-.42-5.979 2.545-10.436l20.289-30.498c3.006-4.519 6.788-8 11.346-10.445 4.672-2.507 9.721-3.762 15.148-3.768l12.76-.012c5.353-.005 8.701 1.242 10.042 3.743 1.382 2.439.57 5.918-2.436 10.436l-2.924 4.396c-.731 1.099-1.757 1.649-3.077 1.65l-6.93.007c-1.247.001-1.504-.547-.773-1.646l2.681-4.03c3.005-4.518 1.868-6.775-3.412-6.77l-9.57.01c-5.28.005-9.423 2.266-12.428 6.785l-19.802 29.765c-3.006 4.518-1.868 6.774 3.412 6.769l9.57-.009c5.28-.005 9.422-2.267 12.428-6.785l2.681-4.03c.731-1.099 1.72-1.649 2.967-1.65l6.93-.007c1.32-.001 1.614.548.883 1.647l-2.925 4.396c-2.965 4.457-6.783 7.939-11.455 10.445-4.672 2.506-9.685 3.762-15.038 3.767ZM748.012 552.267l-9.68.01c-5.427.005-8.811-1.243-10.152-3.743-1.268-2.5-.419-5.979 2.546-10.436l12.185-18.317c3.006-4.519 6.788-8 11.346-10.445 4.672-2.507 9.721-3.762 15.148-3.768l9.68-.009c5.353-.005 8.701 1.242 10.042 3.742 1.455 2.44.68 5.918-2.326 10.437l-12.185 18.317c-2.965 4.457-6.821 7.939-11.566 10.445-4.672 2.506-9.685 3.762-15.038 3.767Zm-2.961-7.777 6.71-.006c5.28-.005 9.402-2.236 12.368-6.694l11.819-17.767c2.966-4.457 1.808-6.683-3.472-6.678l-6.71.006c-2.786.003-5.169.555-7.146 1.655-1.938 1.039-3.678 2.719-5.222 5.039l-11.819 17.767c-1.544 2.321-2.058 4.03-1.542 5.127.556 1.037 2.227 1.554 5.014 1.551ZM786.612 552.229l-6.93.007c-1.247.001-1.525-.517-.835-1.555l29.002-43.594c.69-1.038 1.659-1.558 2.906-1.559l6.93-.007c1.246-.001 1.524.517.834 1.555l-2.193 3.297h.44c3.912-3.238 8.692-4.86 14.339-4.865l4.84-.005c5.353-.005 8.647 1.212 9.883 3.652 1.235 2.439.329 5.948-2.717 10.528l-20.594 30.955c-.69 1.038-1.695 1.558-3.015 1.559l-6.93.007c-1.247.001-1.525-.517-.835-1.555l20.35-30.589c3.006-4.519 1.832-6.775-3.521-6.77l-5.17.005c-6.013.006-10.746 2.604-14.199 7.794l-19.68 29.582c-.69 1.038-1.659 1.557-2.905 1.558ZM854.658 552.163l-20.24.02c-1.247.001-1.525-.517-.834-1.555l2.985-4.488c.65-.977 1.598-1.466 2.845-1.467l18.48-.018c4.767-.005 8.064-1.381 9.892-4.129l.731-1.099c1.624-2.442 1.14-4.302-1.454-5.581l-8.821-4.751c-2.766-1.462-4.403-3.077-4.911-4.846-.509-1.769.191-4.088 2.1-6.958 5.24-7.876 13.103-11.82 23.59-11.83l18.26-.018c1.173-.001 1.415.518.724 1.556l-2.985 4.487c-.691 1.038-1.623 1.558-2.796 1.559l-16.06.016c-2.2.002-4.11.339-5.73 1.012-1.58.612-2.715 1.436-3.405 2.474l-.671 1.008c-1.299 1.954-.567 3.661 2.198 5.123l8.689 5.117c2.879 1.401 4.365 3.077 4.458 5.03.208 1.891-.704 4.363-2.735 7.416-5.28 7.937-13.384 11.911-24.31 11.922ZM903.23 552.116l-4.95.004c-5.28.006-8.537-1.212-9.772-3.651-1.122-2.501-.179-6.01 2.826-10.528l20.594-30.956c.69-1.038 1.659-1.558 2.906-1.559l6.93-.007c1.246-.001 1.524.518.834 1.556l-20.35 30.589c-3.006 4.518-1.869 6.775 3.411 6.77l5.28-.006c6.014-.006 10.747-2.603 14.199-7.793l19.68-29.582c.69-1.038 1.659-1.558 2.906-1.559l6.93-.007c1.32-.001 1.634.517.944 1.555l-29.002 43.595c-.69 1.038-1.696 1.557-3.016 1.559l-6.93.006c-1.246.002-1.524-.517-.834-1.555l2.194-3.297-.44.001c-3.913 3.237-8.693 4.859-14.34 4.865ZM948.617 552.071l-6.93.007c-1.247.001-1.525-.517-.835-1.555l40.761-61.271c.69-1.038 1.659-1.557 2.906-1.558l6.93-.007c1.246-.001 1.525.517.834 1.555l-40.761 61.27c-.69 1.038-1.659 1.558-2.905 1.559ZM992.485 513.13l-5.28.005c-.734.001-1.186-.09-1.358-.273-.057-.244.097-.641.463-1.19l3.168-4.763c.69-1.038 1.659-1.557 2.906-1.559l5.28-.005c.733 0 1.303-.306 1.709-.917l5.487-8.242c.69-1.038 1.69-1.558 3.01-1.559l6.93-.007c1.25-.001 1.53.517.84 1.555l-5.49 8.243c-.4.61-.2.915.6.914l10.23-.009c1.32-.002 1.64.517.95 1.555l-3.17 4.762c-.65.977-1.64 1.466-2.96 1.467l-10.23.01c-.8.001-1.41.307-1.81.917l-15.663 23.538c-2.965 4.457-1.698 6.683 3.802 6.677l4.29-.004c1.32-.001 1.635.517.945 1.555l-3.169 4.763c-.65.976-1.635 1.466-2.955 1.467l-5.94.006c-5.426.005-8.867-1.212-10.322-3.651-1.456-2.44-.701-5.888 2.264-10.345l15.963-23.995c.407-.611.243-.916-.49-.915ZM1029.13 551.993l-9.68.009c-5.42.005-8.81-1.242-10.15-3.743-1.27-2.5-.42-5.979 2.55-10.436l12.18-18.317c3.01-4.518 6.79-8 11.35-10.445 4.67-2.506 9.72-3.762 15.15-3.767l9.68-.01c5.35-.005 8.7 1.243 10.04 3.743 1.46 2.439.68 5.918-2.33 10.436l-12.18 18.317c-2.97 4.457-6.82 7.939-11.57 10.445-4.67 2.507-9.68 3.762-15.04 3.768Zm-2.96-7.777 6.71-.007c5.28-.005 9.41-2.236 12.37-6.693l11.82-17.768c2.97-4.457 1.81-6.683-3.47-6.678l-6.71.007c-2.79.003-5.17.554-7.15 1.654-1.93 1.04-3.68 2.719-5.22 5.039l-11.82 17.768c-1.54 2.32-2.06 4.029-1.54 5.127.56 1.037 2.23 1.554 5.01 1.551ZM1067.73 551.955l-6.93.007c-1.24.001-1.52-.517-.83-1.555l29-43.595c.69-1.038 1.66-1.558 2.91-1.559l6.93-.007c1.24-.001 1.52.518.83 1.556l-2.31 3.48.44-.001c1.75-1.527 3.95-2.749 6.61-3.667 2.74-.918 5.39-1.378 7.96-1.381l4.07-.004c1.24-.001 1.52.517.83 1.555l-3.17 4.763c-.77 1.16-1.72 1.649-2.84 1.467l-6.6.006c-6.09.006-10.98 2.787-14.68 8.344l-19.31 29.032c-.69 1.038-1.66 1.558-2.91 1.559ZM1149.5 487.533l8.58-.009c.59 0 .85.152.8.457.06.244-.26.61-.95 1.099l-15.34 9.168c-1.14.733-2.27 1.1-3.37 1.101l-5.17.005c-1.24.002-1.19-.517.16-1.556l11.57-8.797c1.16-.978 2.4-1.467 3.72-1.468Zm-52.13 62.837 29-43.594c.69-1.038 1.62-1.558 2.79-1.559l7.04-.007c1.25-.001 1.53.517.84 1.555l-29 43.595c-.41.61-.84 1.038-1.3 1.282-.34.184-.84.276-1.5.276l-7.04.007c-1.25.001-1.52-.517-.83-1.555ZM1141.59 551.883l-4.29.004c-5.43.005-8.81-1.242-10.16-3.743-1.26-2.5-.41-5.979 2.55-10.436l12.19-18.317c3-4.518 6.78-8 11.34-10.445 4.67-2.506 9.72-3.762 15.15-3.767l24.64-.025c1.32-.001 1.63.518.94 1.556l-29 43.594c-.69 1.038-1.69 1.558-3.01 1.559l-6.93.007c-1.25.001-1.53-.517-.84-1.555l2.2-3.298-.44.001c-3.92 3.238-8.7 4.859-14.34 4.865Zm21.9-15.581 14.93-22.438c.41-.611.21-.916-.6-.915l-13.09.013c-5.28.005-9.42 2.267-12.43 6.785l-11.7 17.584c-3 4.518-1.86 6.775 3.42 6.77l5.28-.005c6.01-.006 10.74-2.604 14.19-7.794ZM.5 272v152.5h113.501V385c0-31.2 25.333-38.333 38-38h165l64.5-115h-346.5C5.8 232-.166 258.667.5 272Z"/><path fill="#52A567" d="M0 608V458h114.001v39c0 30.4 25.333 38 38 38h163l64 114h-341c-30.4 0-38-27.333-38-41Z"/></svg>